<?xml version="1.0" encoding="UTF-8"?>
<svg version="1.1" xmlns="http://www.w3.org/2000/svg" width="1039" height="540">
<path d="M0 0 C342.87 0 685.74 0 1039 0 C1039 178.2 1039 356.4 1039 540 C696.13 540 353.26 540 0 540 C0 361.8 0 183.6 0 0 Z " fill="#CCE9FE" transform="translate(0,0)"/>
<path d="M0 0 C0.98774918 -0.01929062 1.97549835 -0.03858124 2.99317932 -0.05845642 C7.47067195 -0.11641645 11.94801402 -0.16538638 16.42578125 -0.19628906 C18.78953586 -0.21795396 21.15320848 -0.25215546 23.51660156 -0.29882812 C26.92931821 -0.36555788 30.34038677 -0.39323536 33.75366211 -0.41235352 C34.81102066 -0.44018417 35.86837921 -0.46801483 36.95777893 -0.49668884 C39.73468946 -0.48886376 42.20229497 -0.42504754 44.90600586 0.20874023 C48.53667836 4.10550711 49.60300762 7.92404888 50.65600586 13.08374023 C50.89834961 14.23616211 51.14069336 15.38858398 51.39038086 16.57592773 C51.56053711 17.44475586 51.73069336 18.31358398 51.90600586 19.20874023 C52.5107373 19.22855957 53.11546875 19.24837891 53.73852539 19.26879883 C56.50309095 19.36460323 59.2669576 19.47405578 62.03100586 19.58374023 C62.98233398 19.61467773 63.93366211 19.64561523 64.91381836 19.67749023 C69.92310934 19.88621069 74.20967199 20.26379389 78.90600586 22.20874023 C78.58037451 25.20726225 77.91023554 26.20458608 75.71850586 28.35717773 C72.80053663 30.6672367 69.85777198 32.94206572 66.90600586 35.20874023 C66.20217773 35.84166992 65.49834961 36.47459961 64.77319336 37.12670898 C60.14427589 40.94783498 56.11776855 41.56953648 50.24194336 41.43530273 C49.50034973 41.4260527 48.7587561 41.41680267 47.99468994 41.40727234 C40.29514719 41.27149244 32.61878005 40.8264579 24.94458008 40.20166016 C22.61637211 40.0181157 20.28723895 39.86664886 17.95678711 39.71459961 C16.45532951 39.59611133 14.95401894 39.47574126 13.45288086 39.35327148 C12.76643494 39.31345657 12.07998901 39.27364166 11.3727417 39.23262024 C7.61780248 38.88541695 5.94268666 38.23962508 3.02441406 35.7824707 C-0.1623753 31.91072547 -2.05418986 27.76163672 -4.09399414 23.20874023 C-4.46782227 22.40049805 -4.84165039 21.59225586 -5.22680664 20.75952148 C-7.99565617 14.39116756 -9.19733152 8.07528818 -10.09399414 1.20874023 C-6.68487911 0.44780239 -3.49029167 0.06405677 0 0 Z " fill="#BEE0F9" transform="translate(401.093994140625,471.791259765625)"/>
<path d="M0 0 C4.28500119 0.84807315 5.51600012 2.35162518 8 6 C13.64482318 15.3271883 16.51091846 26.16684389 17 37 C16.07058594 37.12117188 15.14117188 37.24234375 14.18359375 37.3671875 C6.53048553 38.29967314 6.53048553 38.29967314 -0.9375 40.125 C-4.40229329 41.11494094 -7.41469965 41.14633879 -11 41 C-11 42.65 -11 44.3 -11 46 C-13.64 46.66 -16.28 47.32 -19 48 C-18.979375 48.9075 -18.95875 49.815 -18.9375 50.75 C-19 54 -19 54 -19.6875 55.9375 C-20.23202888 58.30792388 -20.23202888 58.30792388 -18.5 61.5 C-17 65 -17 65 -17.3125 67.4375 C-17.539375 67.953125 -17.76625 68.46875 -18 69 C-19.98 69 -21.96 69 -24 69 C-26 64 -28 59 -30 54 C-31.051875 54.04125 -32.10375 54.0825 -33.1875 54.125 C-36.74010173 54.00852125 -38.84866641 53.52791932 -42 52 C-42.76681614 43.37757848 -42.76681614 43.37757848 -40.88671875 40 C-39.5 38.375 -39.5 38.375 -37 36 C-37.66 35.34 -38.32 34.68 -39 34 C-38.0479279 32.99403703 -37.08812654 31.99538437 -36.125 31 C-35.59132813 30.443125 -35.05765625 29.88625 -34.5078125 29.3125 C-33 28 -33 28 -31 28 C-31 28.66 -31 29.32 -31 30 C-30.01 30 -29.02 30 -28 30 C-28 29.34 -28 28.68 -28 28 C-27.34 28 -26.68 28 -26 28 C-25.7525 27.360625 -25.505 26.72125 -25.25 26.0625 C-24.8375 25.381875 -24.425 24.70125 -24 24 C-23.39800781 23.89171875 -22.79601562 23.7834375 -22.17578125 23.671875 C-19.00910292 22.69401383 -17.93502929 20.79735602 -15.9375 18.1875 C-12.42665518 13.72872708 -8.79343793 9.47636221 -4.9375 5.3125 C-4.44822021 4.78358154 -3.95894043 4.25466309 -3.45483398 3.7097168 C-2.30563594 2.47090145 -1.15319067 1.23509955 0 0 Z " fill="#292729" transform="translate(800,149)"/>
<path d="M0 0 C0.98774918 -0.01929062 1.97549835 -0.03858124 2.99317932 -0.05845642 C7.47067195 -0.11641645 11.94801402 -0.16538638 16.42578125 -0.19628906 C18.78953586 -0.21795396 21.15320848 -0.25215546 23.51660156 -0.29882812 C26.92931821 -0.36555788 30.34038677 -0.39323536 33.75366211 -0.41235352 C34.81102066 -0.44018417 35.86837921 -0.46801483 36.95777893 -0.49668884 C39.73468946 -0.48886376 42.20229497 -0.42504754 44.90600586 0.20874023 C48.53667836 4.10550711 49.60300762 7.92404888 50.65600586 13.08374023 C50.89834961 14.23616211 51.14069336 15.38858398 51.39038086 16.57592773 C51.56053711 17.44475586 51.73069336 18.31358398 51.90600586 19.20874023 C52.5107373 19.22855957 53.11546875 19.24837891 53.73852539 19.26879883 C56.50309095 19.36460323 59.2669576 19.47405578 62.03100586 19.58374023 C62.98233398 19.61467773 63.93366211 19.64561523 64.91381836 19.67749023 C69.92310934 19.88621069 74.20967199 20.26379389 78.90600586 22.20874023 C78.58037451 25.20726225 77.91023554 26.20458608 75.71850586 28.35717773 C72.8003295 30.66740068 69.86378466 32.94943427 66.90600586 35.20874023 C66.15577148 35.84166992 65.40553711 36.47459961 64.63256836 37.12670898 C58.37808811 42.02101416 52.63381987 41.85372007 44.90600586 41.20874023 C44.90600586 40.87874023 44.90600586 40.54874023 44.90600586 40.20874023 C49.85600586 39.71374023 49.85600586 39.71374023 54.90600586 39.20874023 C51.85129438 28.57272123 51.85129438 28.57272123 47.71850586 18.33374023 C45.90600586 14.20874023 45.90600586 14.20874023 43.90600586 4.20874023 C27.07600586 3.87874023 10.24600586 3.54874023 -7.09399414 3.20874023 C-5.11399414 7.82874023 -3.13399414 12.44874023 -1.09399414 17.20874023 C0.05878311 20.10017124 1.19370678 22.9819222 2.28100586 25.89624023 C2.6696582 26.90847656 2.6696582 26.90847656 3.06616211 27.94116211 C4.15638142 30.84552942 4.90600586 33.07894806 4.90600586 36.20874023 C5.88956055 36.17393555 6.87311523 36.13913086 7.88647461 36.10327148 C19.78997238 35.82431731 31.17719191 37.2605585 42.90600586 39.20874023 C42.90600586 39.53874023 42.90600586 39.86874023 42.90600586 40.20874023 C33.81027321 40.44031476 24.79036742 40.22315879 15.71850586 39.52124023 C14.82236572 39.46790527 13.92622559 39.41457031 13.00292969 39.35961914 C8.67393004 38.98154415 6.4607177 38.63871528 2.95288086 35.91967773 C-0.0657663 31.92169849 -2.05241571 27.76559668 -4.09399414 23.20874023 C-4.46782227 22.40049805 -4.84165039 21.59225586 -5.22680664 20.75952148 C-7.99565617 14.39116756 -9.19733152 8.07528818 -10.09399414 1.20874023 C-6.68487911 0.44780239 -3.49029167 0.06405677 0 0 Z " fill="#2B2A2D" transform="translate(401.093994140625,471.791259765625)"/>
<path d="M0 0 C0.66 0 1.32 0 2 0 C2.37125 1.19625 2.7425 2.3925 3.125 3.625 C4.55846236 7.90500611 6.19553441 12.08748058 7.9375 16.25 C8.42089844 17.41015625 8.90429688 18.5703125 9.40234375 19.765625 C10.95945131 22.9179112 12.78027039 25.29605291 15 28 C15 28.66 15 29.32 15 30 C13.92621094 30.10957031 12.85242188 30.21914062 11.74609375 30.33203125 C10.3098322 30.49161587 8.87363767 30.65180442 7.4375 30.8125 C6.73302734 30.88275391 6.02855469 30.95300781 5.30273438 31.02539062 C1.66170059 31.44486456 -1.42794796 32.0529044 -4.77734375 33.57421875 C-8 35 -8 35 -12 35 C-13.73828125 33.20703125 -13.73828125 33.20703125 -15.3125 30.8125 C-15.84488281 30.03519531 -16.37726562 29.25789063 -16.92578125 28.45703125 C-18.30204092 25.30915005 -18.21259747 24.21290591 -17 21 C-15.43314685 18.57024221 -13.64942354 16.35479853 -11.8125 14.125 C-11.06528687 13.19953369 -11.06528687 13.19953369 -10.30297852 12.25537109 C-8.87750557 10.49611867 -7.43981225 8.7475183 -6 7 C-5.34257813 6.1853125 -4.68515625 5.370625 -4.0078125 4.53125 C-2.72571438 2.97487218 -1.37209847 1.47764451 0 0 Z " fill="#B9DDF7" transform="translate(798,154)"/>
<path d="M0 0 C2.68211992 2.33923527 3.77605138 4.49253938 5 7.8125 C6.43964921 11.68155726 8.11253336 15.32694702 10 19 C9.28714844 19.75023437 8.57429688 20.50046875 7.83984375 21.2734375 C1.97858279 27.51261306 -3.32776256 33.7923163 -8 41 C-14.1965447 39.53239731 -19.06869466 35.88851943 -24 32 C-24 31.67 -24 31.34 -24 31 C-23.30132812 30.93941406 -22.60265625 30.87882812 -21.8828125 30.81640625 C-20.97273437 30.73261719 -20.06265625 30.64882812 -19.125 30.5625 C-18.22007812 30.48128906 -17.31515625 30.40007812 -16.3828125 30.31640625 C-13.98889139 30.13010715 -13.98889139 30.13010715 -12 29 C-11.65045153 23.29070839 -12.66888368 20.05075203 -15 15 C-15 14.01 -15 13.02 -15 12 C-14.154375 12.309375 -13.30875 12.61875 -12.4375 12.9375 C-8.9502146 14.01538821 -5.61822465 14.56581304 -2 15 C-1.90912109 13.62714844 -1.90912109 13.62714844 -1.81640625 12.2265625 C-1.73261719 11.03804687 -1.64882812 9.84953125 -1.5625 8.625 C-1.48128906 7.44164062 -1.40007812 6.25828125 -1.31640625 5.0390625 C-1 2 -1 2 0 0 Z " fill="#E0EFF9" transform="translate(230,167)"/>
<path d="M0 0 C0.24234375 0.67546875 0.4846875 1.3509375 0.734375 2.046875 C2.560591 6.90741913 3.97192571 10.5473649 8 14 C8 14.66 8 15.32 8 16 C5.10969565 17.1807048 2.21196801 18.34200121 -0.6875 19.5 C-1.50412109 19.83386719 -2.32074219 20.16773438 -3.16210938 20.51171875 C-10.90080835 23.58213373 -10.90080835 23.58213373 -15 23 C-16 22 -16 22 -16.0625 18.9375 C-16.041875 17.968125 -16.02125 16.99875 -16 16 C-16.66 15.67 -17.32 15.34 -18 15 C-15.57473278 12.48787748 -13.13287993 9.99253602 -10.6875 7.5 C-9.65206055 6.42685547 -9.65206055 6.42685547 -8.59570312 5.33203125 C-7.59506836 4.31689453 -7.59506836 4.31689453 -6.57421875 3.28125 C-5.96151123 2.65283203 -5.34880371 2.02441406 -4.7175293 1.37695312 C-3 0 -3 0 0 0 Z " fill="#B9DFF8" transform="translate(778,177)"/>
<path d="M0 0 C1.00065994 0.00007553 2.00131989 0.00015106 3.03230286 0.00022888 C4.10018539 0.00539017 5.16806793 0.01055145 6.26831055 0.01586914 C7.37103806 0.01728409 8.47376556 0.01869904 9.60990906 0.02015686 C13.12497696 0.02574535 16.63998071 0.0382958 20.1550293 0.05102539 C22.54109608 0.05604188 24.92716387 0.06060452 27.31323242 0.06469727 C33.1563532 0.07571102 38.99943666 0.09243775 44.8425293 0.11352539 C44.1825293 1.10352539 43.5225293 2.09352539 42.8425293 3.11352539 C40.7038269 3.47428894 40.7038269 3.47428894 38.02563477 3.45410156 C37.02474823 3.45387497 36.02386169 3.45364838 34.99264526 3.45341492 C33.90927887 3.43793106 32.82591248 3.4224472 31.7097168 3.40649414 C30.04925827 3.40012688 30.04925827 3.40012688 28.35525513 3.39363098 C24.8091022 3.37679753 21.26351133 3.33913619 17.7175293 3.30102539 C15.3177979 3.28598462 12.91805763 3.27229516 10.51831055 3.26000977 C4.62619071 3.22687877 -1.26559985 3.17663316 -7.1574707 3.11352539 C-6.76350098 4.02336182 -6.36953125 4.93319824 -5.96362305 5.87060547 C-3.11531638 12.46852082 -0.2951057 19.06633978 2.2175293 25.80102539 C2.60618164 26.81326172 2.60618164 26.81326172 3.00268555 27.84594727 C4.09290486 30.75031458 4.8425293 32.98373321 4.8425293 36.11352539 C5.82608398 36.0787207 6.80963867 36.04391602 7.82299805 36.00805664 C19.72649582 35.72910246 31.11371535 37.16534366 42.8425293 39.11352539 C42.8425293 39.44352539 42.8425293 39.77352539 42.8425293 40.11352539 C33.74679665 40.34509991 24.72689086 40.12794394 15.6550293 39.42602539 C14.75888916 39.37269043 13.86274902 39.31935547 12.93945312 39.2644043 C8.61045348 38.88632931 6.39724113 38.54350044 2.8894043 35.82446289 C-0.12924286 31.82648364 -2.11589227 27.67038183 -4.1574707 23.11352539 C-4.53129883 22.3052832 -4.90512695 21.49704102 -5.2902832 20.66430664 C-8.05913273 14.29595272 -9.26080808 7.98007334 -10.1574707 1.11352539 C-6.70818711 0.33279311 -3.53372182 -0.00894613 0 0 Z " fill="#5F6A7A" transform="translate(401.157470703125,471.886474609375)"/>
<path d="M0 0 C2.9572927 0.09857642 3.93580267 0.9337965 6 3.0625 C12.44002247 12.521283 15.56399839 22.53203267 15 34 C7.87899052 31.15159621 5.09892769 22.49728618 2.25 15.875 C0.42197929 11.2842425 -1.18657521 6.88054876 -2 2 C-1.34 1.34 -0.68 0.68 0 0 Z " fill="#09080A" transform="translate(800,149)"/>
<path d="M0 0 C3.0625 0.3125 3.0625 0.3125 5 1.4375 C6.0625 3.3125 6.0625 3.3125 6.125 6 C4.67724085 10.51360206 2.06346529 13.69665803 -0.9375 17.3125 C-6.99287521 17.00973124 -10.45233458 14.03495962 -14.9375 10.3125 C-14.1875 5.5625 -14.1875 5.5625 -11.9375 3.3125 C-8.4375 2.8125 -8.4375 2.8125 -4.9375 2.3125 C-2.9375 0.3125 -2.9375 0.3125 0 0 Z " fill="#B9DEF6" transform="translate(427.9375,484.6875)"/>
<path d="M0 0 C0.99 0.33 1.98 0.66 3 1 C3.44838405 3.03497376 3.88491786 5.07310962 4.26953125 7.12109375 C5.48029957 11.89294536 7.56908799 16.28044797 9.5625 20.765625 C10.77338009 23.49010521 11.91456058 26.22377994 13 29 C12.38253906 29.57105469 11.76507813 30.14210937 11.12890625 30.73046875 C4.32338684 37.2459508 -0.88957273 44.12451063 -6 52 C-10.40933262 51.44379534 -13.17414731 49.81595368 -16.8125 47.3125 C-17.86179688 46.59578125 -18.91109375 45.8790625 -19.9921875 45.140625 C-22.5266662 43.33686614 -24.98930007 41.48010147 -27.4375 39.5625 C-30.23160831 37.41004496 -32.38096044 36.22618997 -36 36 C-36 35.01 -36 34.02 -36 33 C-32.88246687 33.67927901 -30.1614743 34.76902654 -27.25 36.0625 C-21.56037086 38.38205339 -16.95363749 38.98454583 -11 37 C-11 37.66 -11 38.32 -11 39 C-13.29629994 40.14814997 -15.07698086 40.30769809 -17.625 40.5625 C-18.44226563 40.64628906 -19.25953125 40.73007813 -20.1015625 40.81640625 C-20.72804687 40.87699219 -21.35453125 40.93757813 -22 41 C-19.8782637 42.33878572 -17.75294812 43.67115476 -15.625 45 C-15.02171875 45.3815625 -14.4184375 45.763125 -13.796875 46.15625 C-10.63883287 48.29684569 -10.63883287 48.29684569 -7 49 C-5.74966403 47.42283761 -4.57557958 45.78498678 -3.4375 44.125 C0.64510065 38.349431 5.16846272 33.15587659 10 28 C9.60167969 27.24976563 9.20335937 26.49953125 8.79296875 25.7265625 C5.75490075 19.8573995 3.23859227 14.28588048 1.640625 7.86328125 C1.17254938 5.79443056 1.17254938 5.79443056 -1 5 C-0.67 3.35 -0.34 1.7 0 0 Z " fill="#616771" transform="translate(229,158)"/>
<path d="M0 0 C1.93166016 0.01740234 1.93166016 0.01740234 3.90234375 0.03515625 C5.19269531 0.04417969 6.48304688 0.05320312 7.8125 0.0625 C8.81152344 0.07410156 9.81054688 0.08570313 10.83984375 0.09765625 C9.38128728 3.78411766 7.5375533 5.25909596 4.21484375 7.34765625 C3.39757812 7.8684375 2.5803125 8.38921875 1.73828125 8.92578125 C0.79855469 9.50585938 0.79855469 9.50585938 -0.16015625 10.09765625 C1.81984375 10.75765625 3.79984375 11.41765625 5.83984375 12.09765625 C4.18901252 14.54333215 3.368391 15.6734745 0.83984375 17.09765625 C-3.52287714 17.54660453 -7.78935352 17.38563008 -12.16015625 17.09765625 C-12.16015625 16.76765625 -12.16015625 16.43765625 -12.16015625 16.09765625 C-8.86015625 15.76765625 -5.56015625 15.43765625 -2.16015625 15.09765625 C-2.49015625 14.08703125 -2.82015625 13.07640625 -3.16015625 12.03515625 C-4.22295003 8.33422187 -4.39163586 4.95564976 -4.16015625 1.09765625 C-3.16015625 0.09765625 -3.16015625 0.09765625 0 0 Z " fill="#0B090A" transform="translate(458.16015625,495.90234375)"/>
<path d="M0 0 C2.72923388 -0.0270817 5.45819637 -0.04687847 8.1875 -0.0625 C8.95642578 -0.07087891 9.72535156 -0.07925781 10.51757812 -0.08789062 C14.48526789 -0.10491934 18.12571234 0.01395885 22 1 C20.35 2.65 18.7 4.3 17 6 C18.32 5.67 19.64 5.34 21 5 C20.63250166 7.71474582 20.1707075 8.8336884 18.1796875 10.7734375 C12.05353728 15.03059273 12.05353728 15.03059273 8.84765625 14.9375 C6.9375 14.375 6.9375 14.375 4 13 C7.40227781 9.3975882 10.8735152 6.71972862 15 4 C15.33 3.34 15.66 2.68 16 2 C15.01257813 2.02320313 14.02515625 2.04640625 13.0078125 2.0703125 C11.72648437 2.08835937 10.44515625 2.10640625 9.125 2.125 C7.21074219 2.15980469 7.21074219 2.15980469 5.2578125 2.1953125 C2 2 2 2 0 0 Z " fill="#879DA9" transform="translate(453,494)"/>
<path d="M0 0 C3.0625 0.3125 3.0625 0.3125 5 1.4375 C6.0625 3.3125 6.0625 3.3125 6.125 6 C4.67724085 10.51360206 2.06346529 13.69665803 -0.9375 17.3125 C-6.99287521 17.00973124 -10.45233458 14.03495962 -14.9375 10.3125 C-14.1875 5.5625 -14.1875 5.5625 -11.9375 3.3125 C-8.4375 2.8125 -8.4375 2.8125 -4.9375 2.3125 C-2.9375 0.3125 -2.9375 0.3125 0 0 Z M-1.9375 2.3125 C-2.5975 3.6325 -3.2575 4.9525 -3.9375 6.3125 C-6.5775 5.9825 -9.2175 5.6525 -11.9375 5.3125 C-12.2675 6.9625 -12.5975 8.6125 -12.9375 10.3125 C-11.69805724 11.18191494 -10.44542941 12.03255457 -9.1875 12.875 C-8.49140625 13.35066406 -7.7953125 13.82632812 -7.078125 14.31640625 C-5.0063986 15.50152351 -5.0063986 15.50152351 -2.8125 15.1015625 C0.17491234 13.84435981 1.372385 12.02875625 3.0625 9.3125 C3.39763594 6.10269864 3.39763594 6.10269864 3.0625 3.3125 C1.4125 2.9825 -0.2375 2.6525 -1.9375 2.3125 Z " fill="#483A35" transform="translate(427.9375,484.6875)"/>
<path d="M0 0 C0.66 0.33 1.32 0.66 2 1 C-3.20766902 6.51805989 -8.78563142 11.62608427 -15 16 C-15.66 16 -16.32 16 -17 16 C-17 15.01 -17 14.02 -17 13 C-17.52956299 13.18175781 -18.05912598 13.36351562 -18.60473633 13.55078125 C-21.00574015 14.37190719 -23.4090641 15.18602171 -25.8125 16 C-26.64587891 16.28617188 -27.47925781 16.57234375 -28.33789062 16.8671875 C-29.14033203 17.13789063 -29.94277344 17.40859375 -30.76953125 17.6875 C-31.50792236 17.93886719 -32.24631348 18.19023437 -33.00708008 18.44921875 C-35 19 -35 19 -38 19 C-38 18.34 -38 17.68 -38 17 C-22.32204489 10.7095812 -22.32204489 10.7095812 -17.125 10.625 C-11.16900055 10.36156156 -7.25057704 5.75186312 -3 2 C-2.01 1.34 -1.02 0.68 0 0 Z " fill="#282B2E" transform="translate(855,145)"/>
<path d="M0 0 C0.66 0 1.32 0 2 0 C2 2.64 2 5.28 2 8 C3.98 8 5.96 8 8 8 C8 8.66 8 9.32 8 10 C6.1128125 10.12375 6.1128125 10.12375 4.1875 10.25 C0.68697727 10.63700664 0.68697727 10.63700664 -1.875 13.0625 C-2.431875 14.0215625 -2.431875 14.0215625 -3 15 C-3.66 15 -4.32 15 -5 15 C-5.103125 13.88625 -5.20625 12.7725 -5.3125 11.625 C-5.539375 10.42875 -5.76625 9.2325 -6 8 C-6.99 7.34 -7.98 6.68 -9 6 C-9 5.01 -9 4.02 -9 3 C-4.545 2.505 -4.545 2.505 0 2 C0 1.34 0 0.68 0 0 Z " fill="#59616B" transform="translate(789,129)"/>
<path d="M0 0 C3 1 3 1 4.1875 3.375 C5 6 5 6 5 9 C6.47533203 8.94779297 6.47533203 8.94779297 7.98046875 8.89453125 C19.88396652 8.61557707 31.27118605 10.05181827 43 12 C43 12.33 43 12.66 43 13 C33.90426735 13.23157452 24.88436156 13.01441855 15.8125 12.3125 C14.91635986 12.25916504 14.02021973 12.20583008 13.09692383 12.15087891 C8.58291267 11.75664586 6.53969209 11.44571242 2.94921875 8.48046875 C2.30597656 7.66191406 1.66273438 6.84335937 1 6 C0.67 5.67 0.34 5.34 0 5 C-0.04063832 3.33382885 -0.042721 1.66611905 0 0 Z " fill="#303137" transform="translate(401,499)"/>
<path d="M0 0 C0.66 0 1.32 0 2 0 C0.46386447 3.56514876 -1.6838452 6.03870356 -4.3125 8.875 C-6.93795504 11.71924296 -9.4671951 14.54678732 -11.8125 17.625 C-12.534375 18.40875 -13.25625 19.1925 -14 20 C-15.32 20 -16.64 20 -18 20 C-18 19.01 -18 18.02 -18 17 C-20.41066845 19.34551525 -22.70194579 21.59155534 -24.6875 24.3125 C-25.120625 24.869375 -25.55375 25.42625 -26 26 C-26.66 26 -27.32 26 -28 26 C-26.56641087 21.26915586 -23.80627924 17.15975813 -20 14 C-18.68 14 -17.36 14 -16 14 C-16 14.99 -16 15.98 -16 17 C-13.31098191 14.3599622 -10.69146854 11.69284488 -8.17578125 8.88671875 C-7.46905273 8.0987793 -7.46905273 8.0987793 -6.74804688 7.29492188 C-5.77610838 6.20661523 -4.80744681 5.11537468 -3.84179688 4.02148438 C-2.60114589 2.64393397 -1.30457158 1.31717614 0 0 Z " fill="#2F2F2F" transform="translate(835,120)"/>
<path d="M0 0 C-1.32 0.33 -2.64 0.66 -4 1 C-2.35 4.3 -0.7 7.6 1 11 C1.66 10.01 2.32 9.02 3 8 C3.36116046 9.4774746 3.71375048 10.95704675 4.0625 12.4375 C4.25972656 13.26121094 4.45695313 14.08492187 4.66015625 14.93359375 C4.77230469 15.61550781 4.88445313 16.29742187 5 17 C4 18 4 18 0.9375 18.0625 C-0.031875 18.041875 -1.00125 18.02125 -2 18 C-2.67305018 16.39850114 -3.33822227 14.79368971 -4 13.1875 C-4.37125 12.29417969 -4.7425 11.40085938 -5.125 10.48046875 C-6.34234659 7.02950854 -6 3.6312755 -6 0 C-3 -1 -3 -1 0 0 Z " fill="#4E4A51" transform="translate(778,200)"/>
<path d="M0 0 C0 5.28 0 10.56 0 16 C-2.53833449 14.73083275 -2.89400901 13.58375191 -4.125 11.0625 C-4.47820313 10.35222656 -4.83140625 9.64195312 -5.1953125 8.91015625 C-6 7 -6 7 -6 5 C-5.67 4.67 -5.34 4.34 -5 4 C-5.99 4 -6.98 4 -8 4 C-7.67 5.98 -7.34 7.96 -7 10 C-7.350625 9.505 -7.70125 9.01 -8.0625 8.5 C-10.94374289 6.26936034 -13.47009026 6.80019379 -17 7 C-17 6.34 -17 5.68 -17 5 C-15.10908264 4.15557119 -13.21202485 3.32488413 -11.3125 2.5 C-10.25675781 2.0359375 -9.20101562 1.571875 -8.11328125 1.09375 C-5 0 -5 0 0 0 Z " fill="#231E21" transform="translate(780,196)"/>
<path d="M0 0 C3.11753313 0.67927901 5.8385257 1.76902654 8.75 3.0625 C14.43962914 5.38205339 19.04636251 5.98454583 25 4 C25 4.66 25 5.32 25 6 C22.70370006 7.14814997 20.92301914 7.30769809 18.375 7.5625 C17.55773437 7.64628906 16.74046875 7.73007813 15.8984375 7.81640625 C14.95871094 7.90728516 14.95871094 7.90728516 14 8 C15.49853516 8.93972656 15.49853516 8.93972656 17.02734375 9.8984375 C18.33089007 10.72370423 19.63426674 11.54923898 20.9375 12.375 C21.59685547 12.7875 22.25621094 13.2 22.93554688 13.625 C27.88671875 16.7734375 27.88671875 16.7734375 29 19 C21.48275238 16.23690358 14.89204913 11.54826061 8.625 6.625 C5.80524258 4.44345928 3.65954334 3.22872146 0 3 C0 2.01 0 1.02 0 0 Z " fill="#5D616B" transform="translate(193,191)"/>
<path d="M0 0 C3 1 3 1 5 4 C8.06556598 4.73343428 8.06556598 4.73343428 11 5 C11 5.66 11 6.32 11 7 C9.68 7 8.36 7 7 7 C7.33 9.31 7.66 11.62 8 14 C7.01 14 6.02 14 5 14 C4.67 13.01 4.34 12.02 4 11 C1.36 10.67 -1.28 10.34 -4 10 C-3.525625 9.649375 -3.05125 9.29875 -2.5625 8.9375 C-0.32126175 6.15836457 -0.32882342 3.4855283 0 0 Z " fill="#292829" transform="translate(843,123)"/>
<path d="M0 0 C0.33 0 0.66 0 1 0 C1.33 1.98 1.66 3.96 2 6 C4.97 6.495 4.97 6.495 8 7 C7.67 7.99 7.34 8.98 7 10 C6.01 10 5.02 10 4 10 C4.33 12.31 4.66 14.62 5 17 C4.01 17 3.02 17 2 17 C2 15.35 2 13.7 2 12 C-0.64 12 -3.28 12 -6 12 C-5.38125 11.319375 -4.7625 10.63875 -4.125 9.9375 C-1.6680932 6.54118766 -0.95054395 4.03981179 0 0 Z " fill="#3F4249" transform="translate(847,164)"/>
<path d="M0 0 C1.0828125 0.2165625 1.0828125 0.2165625 2.1875 0.4375 C3.5796875 0.7159375 3.5796875 0.7159375 5 1 C6.66666667 1.33333333 8.33333333 1.66666667 10 2 C9.690625 2.598125 9.38125 3.19625 9.0625 3.8125 C7.89790296 6.08956772 7.89790296 6.08956772 7 9 C7.66 9 8.32 9 9 9 C9 9.99 9 10.98 9 12 C8.01 12 7.02 12 6 12 C5.67 11.01 5.34 10.02 5 9 C2.69 8.67 0.38 8.34 -2 8 C-2 7.34 -2 6.68 -2 6 C-1.34 6 -0.68 6 0 6 C0 4.02 0 2.04 0 0 Z " fill="#2A282C" transform="translate(821,198)"/>
<path d="M0 0 C11.52164009 0.77904328 11.52164009 0.77904328 17 3 C17 4.32 17 5.64 17 7 C18.42892578 7.09087891 18.42892578 7.09087891 19.88671875 7.18359375 C21.14097656 7.26738281 22.39523437 7.35117188 23.6875 7.4375 C24.92886719 7.51871094 26.17023437 7.59992188 27.44921875 7.68359375 C30.38180337 7.94491317 33.13441617 8.34798379 36 9 C36 9.33 36 9.66 36 10 C28.31604457 10.2137731 21.43659188 10.01670288 14 8 C14 7.01 14 6.02 14 5 C9.38 3.68 4.76 2.36 0 1 C0 0.67 0 0.34 0 0 Z " fill="#302D31" transform="translate(820,182)"/>
<path d="M0 0 C2 2 2 2 3 4 C3.33 2.68 3.66 1.36 4 0 C5.03004293 2.78858 6.04930997 5.58030288 7.0625 8.375 C7.35705078 9.1690625 7.65160156 9.963125 7.95507812 10.78125 C8.22900391 11.54179687 8.50292969 12.30234375 8.78515625 13.0859375 C9.04176025 13.7876709 9.29836426 14.4894043 9.56274414 15.21240234 C10 17 10 17 9 19 C6 18 6 18 4.39453125 14.98046875 C3.85586767 13.720927 3.32895087 12.4563114 2.8125 11.1875 C2.40354492 10.24293945 2.40354492 10.24293945 1.98632812 9.27929688 C0.57443549 5.907032 0 3.71644844 0 0 Z " fill="#626C77" transform="translate(393,481)"/>
<path d="M0 0 C-0.36226286 2.7652732 -0.82438291 3.83526827 -2.890625 5.7734375 C-4.05851562 6.56621094 -4.05851562 6.56621094 -5.25 7.375 C-6.01828125 7.91898437 -6.7865625 8.46296875 -7.578125 9.0234375 C-10 10 -10 10 -12.796875 9.1640625 C-13.52390625 8.77992188 -14.2509375 8.39578125 -15 8 C-12.49539979 5.31649978 -10.38250902 3.43500383 -7 2 C-5.700625 1.443125 -5.700625 1.443125 -4.375 0.875 C-2 0 -2 0 0 0 Z " fill="#65747D" transform="translate(474,499)"/>
<path d="M0 0 C6.6752034 -0.02526945 13.35039457 -0.04283268 20.02563477 -0.05493164 C22.29842591 -0.05997325 24.5712138 -0.06680637 26.84399414 -0.07543945 C30.10303551 -0.08751261 33.36203417 -0.09322987 36.62109375 -0.09765625 C37.64400009 -0.10281754 38.66690643 -0.10797882 39.72080994 -0.11329651 C40.66170975 -0.11337204 41.60260956 -0.11344757 42.57202148 -0.11352539 C43.40475082 -0.115746 44.23748016 -0.11796661 45.09544373 -0.12025452 C47 0 47 0 48 1 C48.04063832 2.66617115 48.042721 4.33388095 48 6 C47.54657227 5.35256836 47.09314453 4.70513672 46.62597656 4.03808594 C42.6477419 0.95047874 38.89161803 1.3970268 33.984375 1.390625 C33.01340881 1.37408875 32.04244263 1.35755249 31.04205322 1.34051514 C27.94463817 1.29197881 24.84771427 1.27065143 21.75 1.25 C19.64841271 1.22184507 17.54684836 1.19191832 15.4453125 1.16015625 C10.29691542 1.0862181 5.14879192 1.03667771 0 1 C0 0.67 0 0.34 0 0 Z " fill="#201615" transform="translate(400,473)"/>
<path d="M0 0 C2.73733204 2.73733204 2.92714122 5.17641435 3.75 8.9375 C4.03359375 10.18402344 4.3171875 11.43054688 4.609375 12.71484375 C5 16 5 16 3 19 C-0.09212176 12.91643021 -1.56699236 7.81987029 -2 1 C-1.34 0.67 -0.68 0.34 0 0 Z " fill="#7A8D9A" transform="translate(448,476)"/>
<path d="M0 0 C5.33333333 2.66666667 10.66666667 5.33333333 16 8 C13.5332355 8.88336837 12.36140628 9.1312406 9.859375 8.22265625 C9.16328125 7.83980469 8.4671875 7.45695313 7.75 7.0625 C7.04359375 6.68222656 6.3371875 6.30195313 5.609375 5.91015625 C5.07828125 5.60980469 4.5471875 5.30945313 4 5 C4.495 6.03125 4.99 7.0625 5.5 8.125 C6.97473902 11.52451578 7.27291106 14.27021549 7 18 C4.91567501 14.87351251 3.71441389 11.94269132 2.375 8.4375 C1.92898437 7.28121094 1.48296875 6.12492188 1.0234375 4.93359375 C0 2 0 2 0 0 Z " fill="#8A919A" transform="translate(211,174)"/>
<path d="M0 0 C0.99 0.33 1.98 0.66 3 1 C3.47788953 3.048098 3.94074704 5.10083979 4.328125 7.16796875 C5.6255642 12.63682583 7.89426496 17.79995965 10 23 C9.34 23.33 8.68 23.66 8 24 C5.17622893 18.74194353 3.21096097 13.78340843 1.7109375 8.00390625 C1.19235973 5.80725461 1.19235973 5.80725461 -1 5 C-0.67 3.35 -0.34 1.7 0 0 Z " fill="#80848C" transform="translate(229,158)"/>
<path d="M0 0 C0.99 0 1.98 0 3 0 C3 5.28 3 10.56 3 16 C0.46166551 14.73083275 0.10599099 13.58375191 -1.125 11.0625 C-1.47820313 10.35222656 -1.83140625 9.64195312 -2.1953125 8.91015625 C-3 7 -3 7 -3 5 C-1.35 4.67 0.3 4.34 2 4 C2 3.34 2 2.68 2 2 C1.01 1.67 0.02 1.34 -1 1 C-0.67 0.67 -0.34 0.34 0 0 Z " fill="#0E0D0D" transform="translate(777,196)"/>
<path d="M0 0 C0.66 0 1.32 0 2 0 C2 2.64 2 5.28 2 8 C3.98 8 5.96 8 8 8 C8 8.66 8 9.32 8 10 C6.7625 10.0825 5.525 10.165 4.25 10.25 C1.01117036 10.63475459 0.12092117 10.90024003 -2.5 13.0625 C-2.995 13.701875 -3.49 14.34125 -4 15 C-3.625 12.5625 -3.625 12.5625 -3 10 C-2.34 9.67 -1.68 9.34 -1 9 C-0.53348793 6.87423218 -0.53348793 6.87423218 -0.375 4.4375 C-0.30023437 3.61121094 -0.22546875 2.78492188 -0.1484375 1.93359375 C-0.09945312 1.29550781 -0.05046875 0.65742188 0 0 Z " fill="#26201F" transform="translate(789,129)"/>
<path d="M0 0 C0.99 0 1.98 0 3 0 C3.33 1.65 3.66 3.3 4 5 C3.01 5.495 3.01 5.495 2 6 C1.60701599 9.01433291 1.60701599 9.01433291 1.5 12.5 C1.34375 16.09375 1.34375 16.09375 1 19 C0.34 19.33 -0.32 19.66 -1 20 C-1.99 19.34 -2.98 18.68 -4 18 C-3.01 18 -2.02 18 -1 18 C-1.01160156 17.3709375 -1.02320313 16.741875 -1.03515625 16.09375 C-1.09286873 10.61930912 -0.80228473 5.41542194 0 0 Z " fill="#B9C4CF" transform="translate(228,163)"/>
<path d="M0 0 C0 0.99 0 1.98 0 3 C-3.64977257 5.90322818 -5.25852179 7 -10 7 C-9.67 6.01 -9.34 5.02 -9 4 C-9.66 3.67 -10.32 3.34 -11 3 C-11 2.34 -11 1.68 -11 1 C-5.555 0.505 -5.555 0.505 0 0 Z " fill="#2E353B" transform="translate(468,496)"/>
<path d="M0 0 C4.455 0.99 4.455 0.99 9 2 C7.34916877 4.4456759 6.52854725 5.57581825 4 7 C-0.36272089 7.44894828 -4.62919727 7.28797383 -9 7 C-9 6.67 -9 6.34 -9 6 C-5.7 5.67 -2.4 5.34 1 5 C0.67 3.35 0.34 1.7 0 0 Z " fill="#1F2224" transform="translate(455,506)"/>
<path d="M0 0 C7.26 0 14.52 0 22 0 C22 0.33 22 0.66 22 1 C12.595 1.99 12.595 1.99 3 3 C2.67 4.98 2.34 6.96 2 9 C0 6 0 6 0 0 Z " fill="#434B55" transform="translate(452,492)"/>
<path d="M0 0 C2.01822917 0.06510417 4.03645833 0.13020833 6.0546875 0.1953125 C6.0546875 0.5253125 6.0546875 0.8553125 6.0546875 1.1953125 C3.7446875 1.5253125 1.4346875 1.8553125 -0.9453125 2.1953125 C-1.2753125 3.5153125 -1.6053125 4.8353125 -1.9453125 6.1953125 C-1.4296875 6.4428125 -0.9140625 6.6903125 -0.3828125 6.9453125 C2.82652901 8.59112866 5.93054414 10.3929221 9.0546875 12.1953125 C6.0546875 13.1953125 6.0546875 13.1953125 3.828125 12.15625 C2.64089844 11.37121094 2.64089844 11.37121094 1.4296875 10.5703125 C0.63304687 10.06242187 -0.16359375 9.55453125 -0.984375 9.03125 C-3.37828412 6.78994066 -3.80863243 5.4440926 -3.9453125 2.1953125 C-1.9453125 0.1953125 -1.9453125 0.1953125 0 0 Z " fill="#383034" transform="translate(416.9453125,488.8046875)"/>
<path d="M0 0 C-0.33 1.32 -0.66 2.64 -1 4 C-1.66 4 -2.32 4 -3 4 C-4.93503849 5.62705939 -6.7847415 7.27183846 -8.625 9 C-9.3984375 9.71542969 -9.3984375 9.71542969 -10.1875 10.4453125 C-11.46242802 11.6258014 -12.73174919 12.81234038 -14 14 C-14.66 13.67 -15.32 13.34 -16 13 C-13.90474642 10.82404478 -11.79972937 8.65936733 -9.6875 6.5 C-8.79514648 5.56994141 -8.79514648 5.56994141 -7.88476562 4.62109375 C-7.30791016 4.03457031 -6.73105469 3.44804687 -6.13671875 2.84375 C-5.60780029 2.29912109 -5.07888184 1.75449219 -4.53393555 1.19335938 C-3 0 -3 0 0 0 Z " fill="#9BBCD5" transform="translate(778,177)"/>
<path d="M0 0 C0 4 0 4 -1.609375 5.8515625 C-2.66898438 6.72941406 -2.66898438 6.72941406 -3.75 7.625 C-4.44609375 8.21539062 -5.1421875 8.80578125 -5.859375 9.4140625 C-7.84526351 10.88535946 -9.75581655 11.97899762 -12 13 C-3.75609756 0 -3.75609756 0 0 0 Z " fill="#A2C2D9" transform="translate(800,154)"/>
<path d="M0 0 C0 0.66 0 1.32 0 2 C-1.93558599 2.67220351 -3.87354372 3.33758077 -5.8125 4 C-6.89144531 4.37125 -7.97039063 4.7425 -9.08203125 5.125 C-12 6 -12 6 -15 6 C-15 5.34 -15 4.68 -15 4 C-12.87875034 3.13656176 -10.75286928 2.28449352 -8.625 1.4375 C-6.84996094 0.72400391 -6.84996094 0.72400391 -5.0390625 -0.00390625 C-2 -1 -2 -1 0 0 Z " fill="#3F444D" transform="translate(832,158)"/>
<path d="M0 0 C-0.3125 1.9375 -0.3125 1.9375 -1 4 C-1.99 4.33 -2.98 4.66 -4 5 C-5.36830247 6.6336861 -5.36830247 6.6336861 -6.5625 8.5625 C-7.81640625 10.50390625 -7.81640625 10.50390625 -9 12 C-9.66 12 -10.32 12 -11 12 C-9.43035549 6.8201731 -5.8629386 0 0 0 Z " fill="#261F23" transform="translate(818,134)"/>
<path d="M0 0 C1.98 0 3.96 0 6 0 C5.01 0.33 4.02 0.66 3 1 C3.309375 1.495 3.61875 1.99 3.9375 2.5 C5.41644382 5.97986781 5.62402851 9.24028509 6 13 C3.19438607 11.59719304 2.99319493 9.9490995 1.875 7.0625 C1.52179688 6.16660156 1.16859375 5.27070313 0.8046875 4.34765625 C0 2 0 2 0 0 Z " fill="#3E3B3E" transform="translate(391,474)"/>
<path d="M0 0 C0.66 0 1.32 0 2 0 C2.103125 0.94875 2.20625 1.8975 2.3125 2.875 C2.68539295 6.29107501 2.68539295 6.29107501 6 8 C2.94736336 8.98120464 1.05263664 8.98120464 -2 8 C-2 5.69 -2 3.38 -2 1 C-1.34 1.66 -0.68 2.32 0 3 C0 2.01 0 1.02 0 0 Z " fill="#393D43" transform="translate(760,193)"/>
<path d="M0 0 C0.33 1.32 0.66 2.64 1 4 C-1.64 4.66 -4.28 5.32 -7 6 C-7 7.98 -7 9.96 -7 12 C-7.33 12 -7.66 12 -8 12 C-8 9.69 -8 7.38 -8 5 C-8.66 4.67 -9.32 4.34 -10 4 C-6.21812119 2.16308743 -4.05431692 1.84162374 0 3 C0 2.01 0 1.02 0 0 Z " fill="#43474D" transform="translate(788,191)"/>
<path d="M0 0 C0.67578125 1.70703125 0.67578125 1.70703125 1 4 C-0.14453125 6.32421875 -0.14453125 6.32421875 -1.8125 8.6875 C-2.62654297 9.86892578 -2.62654297 9.86892578 -3.45703125 11.07421875 C-5 13 -5 13 -7 14 C-7.66 13.34 -8.32 12.68 -9 12 C-7.824375 11.2265625 -7.824375 11.2265625 -6.625 10.4375 C-3.43609856 7.47637723 -3.01902943 5.15450462 -2 1 C-1.34 0.67 -0.68 0.34 0 0 Z " fill="#52575D" transform="translate(433,488)"/>
<path d="M0 0 C0.33 0 0.66 0 1 0 C1.33 3.3 1.66 6.6 2 10 C-3.28 9.67 -8.56 9.34 -14 9 C-14 8.67 -14 8.34 -14 8 C-9.38 7.67 -4.76 7.34 0 7 C0 4.69 0 2.38 0 0 Z " fill="#30343D" transform="translate(815,176)"/>
<path d="M0 0 C0.99 0.495 0.99 0.495 2 1 C2 2.32 2 3.64 2 5 C3.65 5 5.3 5 7 5 C6.67 5.99 6.34 6.98 6 8 C5.01 8 4.02 8 3 8 C3 8.66 3 9.32 3 10 C2.34 10 1.68 10 1 10 C-0.60725635 6.78548731 -0.05748185 3.56387464 0 0 Z " fill="#9DBBD0" transform="translate(816,176)"/>
<path d="M0 0 C0.66 0.66 1.32 1.32 2 2 C-0.97 5.3 -3.94 8.6 -7 12 C-7.33 11.01 -7.66 10.02 -8 9 C-5.36 6.03 -2.72 3.06 0 0 Z " fill="#2F2D34" transform="translate(797,152)"/>
<path d="M0 0 C-0.46019531 0.39832031 -0.92039062 0.79664063 -1.39453125 1.20703125 C-3.2674322 3.29866516 -3.87389302 5.01421992 -4.6875 7.6875 C-4.93886719 8.49574219 -5.19023438 9.30398437 -5.44921875 10.13671875 C-5.72185547 11.05904297 -5.72185547 11.05904297 -6 12 C-6.66 11.67 -7.32 11.34 -8 11 C-7.77169299 9.37181054 -7.51656424 7.7473651 -7.25 6.125 C-7.11078125 5.22007812 -6.9715625 4.31515625 -6.828125 3.3828125 C-6 1 -6 1 -4.046875 -0.3828125 C-2 -1 -2 -1 0 0 Z " fill="#A2C3DC" transform="translate(787,196)"/>
<path d="M0 0 C2.81256281 -0.02684312 5.62487241 -0.04676188 8.4375 -0.0625 C9.23994141 -0.07087891 10.04238281 -0.07925781 10.86914062 -0.08789062 C12.91295221 -0.0965143 14.95683902 -0.0522815 17 0 C18 1 18 1 18.0625 3.5625 C18.041875 4.366875 18.02125 5.17125 18 6 C17.48953125 5.35546875 16.9790625 4.7109375 16.453125 4.046875 C13.18676112 1.32143762 10.95555161 1.40576117 6.75 1.25 C4.85507812 1.16492188 4.85507812 1.16492188 2.921875 1.078125 C1.95765625 1.05234375 0.9934375 1.0265625 0 1 C0 0.67 0 0.34 0 0 Z " fill="#261D1B" transform="translate(430,473)"/>
<path d="M0 0 C0.66 0.66 1.32 1.32 2 2 C0.7934375 3.0828125 0.7934375 3.0828125 -0.4375 4.1875 C-3.02292072 7.02515689 -3.68042813 8.27166147 -4 12 C-6 9 -6 9 -5.9375 7.125 C-4.59492632 4.08183299 -2.41929099 2.23319168 0 0 Z " fill="#28272A" transform="translate(764,185)"/>
<path d="M0 0 C3.11547441 0.67883043 5.85137721 1.74106902 8.75 3.0625 C9.54921875 3.42472656 10.3484375 3.78695312 11.171875 4.16015625 C11.77515625 4.43730469 12.3784375 4.71445313 13 5 C13 5.33 13 5.66 13 6 C10.125 6.125 10.125 6.125 7 6 C6.34 5.34 5.68 4.68 5 4 C2.42938689 3.35232207 2.42938689 3.35232207 0 3 C0 2.01 0 1.02 0 0 Z " fill="#4D4C50" transform="translate(193,191)"/>
<path d="M0 0 C1.32 0 2.64 0 4 0 C4.66 1.65 5.32 3.3 6 5 C5 6 5 6 2.4375 6.0625 C1.2309375 6.0315625 1.2309375 6.0315625 0 6 C0 4.02 0 2.04 0 0 Z " fill="#515B68" transform="translate(821,198)"/>
<path d="M0 0 C1.63001953 0.01353516 1.63001953 0.01353516 3.29296875 0.02734375 C4.12441406 0.03894531 4.95585938 0.05054688 5.8125 0.0625 C5.8125 0.3925 5.8125 0.7225 5.8125 1.0625 C4.25133181 1.40201619 2.68848662 1.73382544 1.125 2.0625 C-0.18017578 2.3409375 -0.18017578 2.3409375 -1.51171875 2.625 C-4.12462964 3.05222047 -6.54563038 3.13866201 -9.1875 3.0625 C-9.1875 2.4025 -9.1875 1.7425 -9.1875 1.0625 C-5.90230525 -0.03256492 -3.45086585 -0.03710608 0 0 Z " fill="#060505" transform="translate(807.1875,184.9375)"/>
<path d="M0 0 C2.47859908 2.2008849 3.61210366 4.06372969 4.6875 7.1875 C4.93886719 7.90292969 5.19023438 8.61835938 5.44921875 9.35546875 C5.63097656 9.89816406 5.81273437 10.44085938 6 11 C5.01 11 4.02 11 3 11 C0 4.5 0 4.5 0 0 Z " fill="#99B7C5" transform="translate(775,205)"/>
<path d="M0 0 C-1.32 0.33 -2.64 0.66 -4 1 C-3.34 2.32 -2.68 3.64 -2 5 C-2.99 6.485 -2.99 6.485 -4 8 C-4.99 7.67 -5.98 7.34 -7 7 C-6.67 4.69 -6.34 2.38 -6 0 C-3 -1 -3 -1 0 0 Z " fill="#697985" transform="translate(778,200)"/>
<path d="M0 0 C-1.55500981 3.81684226 -4.03595495 6.19195732 -7 9 C-7.66 8.34 -8.32 7.68 -9 7 C-7.88121617 5.82737096 -6.75476949 4.66204862 -5.625 3.5 C-4.68527344 2.52546875 -4.68527344 2.52546875 -3.7265625 1.53125 C-2 0 -2 0 0 0 Z " fill="#3C3837" transform="translate(837,120)"/>
<path d="M0 0 C2.11007147 1.74310252 2.95559826 2.86337925 3.8125 5.5 C4 8 4 8 2 11 C0.19769832 7.17010894 -0.19622241 4.21878192 0 0 Z " fill="#69737A" transform="translate(449,484)"/>
<path d="M0 0 C0.66 0.66 1.32 1.32 2 2 C-0.31 5.3 -2.62 8.6 -5 12 C-5.66 11.34 -6.32 10.68 -7 10 C-3.535 5.05 -3.535 5.05 0 0 Z " fill="#7C8590" transform="translate(228,198)"/>
<path d="M0 0 C0.99 0.33 1.98 0.66 3 1 C2.67 2.32 2.34 3.64 2 5 C0.125 5.625 0.125 5.625 -2 6 C-2.66 5.34 -3.32 4.68 -4 4 C-2.68 2.68 -1.36 1.36 0 0 Z " fill="#54616E" transform="translate(765,179)"/>
<path d="M0 0 C0 0.99 0 1.98 0 3 C-1 4 -1 4 -4.0625 4.0625 C-5.031875 4.041875 -6.00125 4.02125 -7 4 C-7.33 3.34 -7.66 2.68 -8 2 C-5.36 1.34 -2.72 0.68 0 0 Z " fill="#67747C" transform="translate(468,496)"/>
<path d="M0 0 C0.33 0 0.66 0 1 0 C1.1875 2.375 1.1875 2.375 1 5 C0.01 5.66 -0.98 6.32 -2 7 C-2 6.34 -2 5.68 -2 5 C-3.98 5.66 -5.96 6.32 -8 7 C-5.72058766 3.58088149 -5.59525083 3.89881271 -2 3 C-1.34 2.01 -0.68 1.02 0 0 Z " fill="#47494F" transform="translate(782,169)"/>
<path d="M0 0 C0.66 0.33 1.32 0.66 2 1 C-0.31 3.31 -2.62 5.62 -5 8 C-5.99 7.34 -6.98 6.68 -8 6 C-5.36 4.02 -2.72 2.04 0 0 Z " fill="#3B3735" transform="translate(855,145)"/>
<path d="M0 0 C0.99 0.495 0.99 0.495 2 1 C2.625 3.0625 2.625 3.0625 3 5 C4.65 5.33 6.3 5.66 8 6 C7.67 6.99 7.34 7.98 7 9 C7 8.34 7 7.68 7 7 C5.5459375 7.0309375 5.5459375 7.0309375 4.0625 7.0625 C1 7 1 7 0 6 C-0.04080783 4.00041636 -0.04254356 1.99954746 0 0 Z " fill="#8395A7" transform="translate(848,164)"/>
<path d="M0 0 C1.32 0.33 2.64 0.66 4 1 C4.33 3.31 4.66 5.62 5 8 C4.01 8 3.02 8 2 8 C1.67 6.68 1.34 5.36 1 4 C1.66 4 2.32 4 3 4 C3 3.34 3 2.68 3 2 C2.01 2 1.02 2 0 2 C0 1.34 0 0.68 0 0 Z " fill="#52595C" transform="translate(846,129)"/>
<path d="M0 0 C2.11180592 2.57089417 3.66306057 4.63060567 4 8 C3.34 8.66 2.68 9.32 2 10 C-1.07692308 4.58461538 -1.07692308 4.58461538 -0.6875 1.625 C-0.460625 1.08875 -0.23375 0.5525 0 0 Z " fill="#393133" transform="translate(779,177)"/>
<path d="M0 0 C2.88575819 0.39803561 3.82189513 0.79009069 5.75 3.0625 C6.1625 3.701875 6.575 4.34125 7 5 C5.02 5 3.04 5 1 5 C0.67 3.35 0.34 1.7 0 0 Z " fill="#8FA8BC" transform="translate(836,184)"/>
<path d="M0 0 C2.64 0.33 5.28 0.66 8 1 C7.67 1.99 7.34 2.98 7 4 C4.625 3.6875 4.625 3.6875 2 3 C1.34 2.01 0.68 1.02 0 0 Z " fill="#121112" transform="translate(847,170)"/>
<path d="M0 0 C3.3 0 6.6 0 10 0 C8.515 1.485 8.515 1.485 7 3 C6.01 3 5.02 3 4 3 C4 2.34 4 1.68 4 1 C2.68 0.67 1.36 0.34 0 0 Z " fill="#90ABBE" transform="translate(465,495)"/>
<path d="M0 0 C0.66 0.66 1.32 1.32 2 2 C1.01 3.485 1.01 3.485 0 5 C-0.99 4.67 -1.98 4.34 -3 4 C-4.66362417 3.65179959 -6.32995171 3.31595508 -8 3 C-8 2.67 -8 2.34 -8 2 C-6.865625 1.855625 -5.73125 1.71125 -4.5625 1.5625 C-1.19222799 1.38828522 -1.19222799 1.38828522 0 0 Z " fill="#6E737B" transform="translate(424,486)"/>
<path d="M0 0 C0.99 0 1.98 0 3 0 C3 2.31 3 4.62 3 7 C2.01 7 1.02 7 0 7 C0 4.69 0 2.38 0 0 Z " fill="#C6D2DC" transform="translate(216,189)"/>
<path d="M0 0 C1.32 1.32 2.64 2.64 4 4 C3.34 5.32 2.68 6.64 2 8 C1.34 8 0.68 8 0 8 C0.2784375 7.13375 0.2784375 7.13375 0.5625 6.25 C1.04023546 3.79307475 0.75729364 2.35602466 0 0 Z " fill="#605F62" transform="translate(238,181)"/>
<path d="M0 0 C0.66 0.66 1.32 1.32 2 2 C0.71937515 3.7074998 -0.61767557 5.37373596 -2 7 C-2.66 7 -3.32 7 -4 7 C-2.92598892 4.08482708 -2.22189824 2.22189824 0 0 Z " fill="#303033" transform="translate(811,139)"/>
</svg>
